# xmcd CD database file
#
# Track frame offsets:
#	150
#	14729
#	27481
#	41668
#	56976
#	71326
#	80086
#
# Disc length: 1310 seconds
#
# Revision: 0
# Processed by: cddbd v1.5.1PL0 Copyright (c) Steve Scherf et al.
# Submitted via: CDex 1.50Beta7
#
DISCID=62051c07
DTITLE=The Hong Kong - Rock The Faces
DYEAR=1900
DGENRE=New Age
TTITLE0=Mazerati
TTITLE1=Galaxies
TTITLE2=Birds
TTITLE3=Rock The Faces
TTITLE4=Super Collider
TTITLE5=Disappear
TTITLE6=It's On
EXTD=
EXTT0=
EXTT1=
EXTT2=
EXTT3=
EXTT4=
EXTT5=
EXTT6=
PLAYORDER=
